<svg width="172" height="32" viewBox="0 0 172 32" fill="none" xmlns="http://www.w3.org/2000/svg">
  <rect width="172" height="32" fill="white"/>
  <path d="M6 8H10.4L15.2 20.4L20 8H24.4V24H21.2V12.8L16.8 24H13.6L9.2 12.8V24H6V8Z" fill="#13284C"/>
  <path d="M31.0845 8H34.4285V24H31.0845V8Z" fill="#13284C"/>
  <path d="M41.1137 8H44.4577V20.96H51.8737V24H41.1137V8Z" fill="#13284C"/>
  <path d="M57.2176 8H60.5616V24H57.2176V8Z" fill="#13284C"/>
  <path d="M67.2469 8H70.9989L78.3189 18.92V8H81.6629V24H77.9109L70.5909 13.08V24H67.2469V8Z" fill="#13284C"/>
  <path d="M88.3102 8H91.6542V24H88.3102V8Z" fill="#13284C"/>
  <path d="M98.3394 8H102.163L106.467 13.864L110.771 8H114.523L108.347 16.016L114.787 24H110.771L106.347 18.136L101.923 24H98.1234L104.611 15.84L98.3394 8Z" fill="#007E73"/>
</svg>
